<svg width="222" height="222" viewBox="0 0 222 222" fill="none" xmlns="http://www.w3.org/2000/svg">
<path d="M197.587 128.508L218.343 128.508C219.689 128.508 220.78 129.6 220.78 130.945C220.78 132.29 219.689 133.382 218.343 133.382L197.587 133.382C196.242 133.382 195.15 132.29 195.15 130.945C195.15 129.6 196.242 128.508 197.587 128.508Z" fill="#4F46E5"/>
<path d="M79.7579 32.6887C81.2273 32.6887 82.6966 33.2468 83.8151 34.3652L107.177 57.7268C109.414 59.9687 109.414 63.6092 107.177 65.8462L84.1563 88.8666L149.672 88.8666C151.017 88.8666 152.109 89.9559 152.109 91.3034C152.109 92.651 151.017 93.7402 149.672 93.7402L78.2714 93.7402C77.287 93.7402 76.3951 93.1481 76.0198 92.2367C75.6421 91.3254 75.8517 90.2775 76.5486 89.5806L103.731 62.4006C104.07 62.0619 104.07 61.5112 103.729 61.17L80.3719 37.8133C80.0332 37.4722 79.4825 37.4746 79.1438 37.8133L6.57596 110.384C6.37127 110.588 6.33474 110.849 6.34205 111.032C6.33474 111.397 6.37127 111.658 6.57596 111.863L79.1438 184.433C79.5848 184.872 79.926 184.881 80.3719 184.433L103.731 161.076C104.07 160.738 104.07 160.187 103.731 159.848L76.551 132.67C75.8541 131.974 75.6446 130.926 76.0223 130.014C76.3975 129.103 77.2894 128.511 78.2739 128.511L176.087 128.511C177.432 128.511 178.524 129.603 178.524 130.948C178.524 132.293 177.432 133.384 176.087 133.384L84.1538 133.384L107.174 156.405C109.411 158.644 109.411 162.287 107.174 164.524L83.8151 187.883C81.6415 190.055 77.8596 190.052 75.6957 187.883L3.12791 115.316C1.99724 114.187 1.40995 112.667 1.47087 111.039C1.40995 109.594 1.99724 108.076 3.12791 106.945L75.6957 34.375C76.8167 33.2492 78.286 32.6887 79.7579 32.6887Z" fill="#4F46E5"/>
<path d="M169.944 88.8666L190.157 88.8666C191.502 88.8666 192.594 89.9559 192.594 91.3034C192.594 92.651 191.502 93.7402 190.157 93.7402L169.944 93.7402C168.599 93.7402 167.507 92.651 167.507 91.3034C167.507 89.9559 168.599 88.8666 169.944 88.8666Z" fill="#4F46E5"/>
<path d="M119.573 108.688L202.975 108.688C204.32 108.688 205.411 109.779 205.411 111.124C205.411 112.469 204.32 113.561 202.975 113.561L119.573 113.561C118.228 113.561 117.136 112.469 117.136 111.124C117.136 109.779 118.228 108.688 119.573 108.688Z" fill="#4F46E5"/>
</svg>
