<svg width="221" height="221" viewBox="0 0 221 221" fill="none" xmlns="http://www.w3.org/2000/svg">
<path d="M141.233 9.8932C141.181 9.94499 140.56 10.0141 139.834 10.0659C136.934 10.2558 132.617 12.0169 129.51 14.2614C127.714 15.5563 124.727 18.267 123.622 19.6137C122.033 21.513 120.773 23.1705 120.445 23.7575C120.29 24.0337 119.806 24.7934 119.375 25.4668C118.943 26.1229 118.442 26.9862 118.252 27.366C118.062 27.7459 117.821 28.212 117.7 28.4192C116.629 30.2666 114.765 34.8766 113.867 37.898C112.417 42.8015 111.674 48.033 111.657 53.5234C111.622 60.9477 113.055 67.664 115.904 73.5516C117.786 77.4363 120.877 81.2866 123.708 83.2894C125.003 84.1872 127.852 85.8102 128.163 85.8102C128.284 85.8102 128.456 85.8792 128.56 85.9656C128.715 86.1209 130.753 86.7425 131.65 86.9324C131.944 86.9842 133.032 87.0706 134.102 87.1396C141.716 87.554 149.348 83.2721 155.408 75.1918C160.225 68.769 164.024 58.9276 164.887 50.6746C164.973 49.8113 165.077 48.8445 165.129 48.5164C165.18 48.1884 165.267 46.3582 165.318 44.459C165.422 41.0922 165.198 37.3628 164.731 34.9629C164.645 34.4795 164.472 33.5989 164.369 32.9773C163.35 27.5041 160.864 22.0137 157.411 17.6455C154.562 14.0369 150.418 11.378 145.774 10.1867C145.031 9.99679 141.371 9.75507 141.233 9.8932Z" fill="#090b10"/>
<path d="M71.1344 11.4816C65.9892 12.6384 61.9145 15.2628 58.7722 19.4238C57.8744 20.6151 56.1133 23.3604 56.1133 23.5675C56.1133 23.6021 55.8888 24.12 55.6126 24.7243C54.0414 28.1429 52.8846 32.5457 52.522 36.6031C52.2803 39.1757 52.4184 46.41 52.7292 48.5164C53.4544 53.299 54.9047 58.5132 56.7003 62.7433C58.1506 66.1791 61.2412 71.4969 63.0368 73.6551C63.3648 74.035 63.8655 74.6565 64.1418 75.0364C65.0396 76.1932 68.0438 79.1111 69.7531 80.4578C71.2552 81.6491 73.258 83.0476 73.448 83.0476C73.4998 83.0476 73.8796 83.2721 74.294 83.5483C74.6911 83.8419 75.3472 84.1699 75.727 84.308C76.0896 84.4462 76.9356 84.7569 77.609 85.0159C80.9412 86.259 84.4289 86.6907 88.0547 86.2936C90.9726 85.9655 95.03 84.1008 97.4817 81.9599C101.574 78.3859 104.164 74.0177 105.994 67.5949C106.684 65.1086 107.202 61.7419 107.34 58.7894C107.375 57.5463 107.427 56.4586 107.427 56.3722C107.461 55.6989 107.185 51.1062 107.03 49.984C106.874 48.7926 106.356 45.6503 106.115 44.4072C105.89 43.354 104.837 39.8836 104.077 37.7254C102.61 33.6161 100.624 29.6968 97.7407 25.2941C97.1709 24.4308 94.7019 21.4439 93.4761 20.1662C90.351 16.8858 85.931 13.8643 82.357 12.5693C79.6463 11.5852 78.4032 11.378 75.2781 11.2917C73.0336 11.2399 71.9631 11.2917 71.1344 11.4816Z" fill="#090b10"/>
<path d="M185.692 57.1492C181.099 57.7535 176.627 60.1362 172.432 64.2109C171.776 64.8324 170.619 66.1101 169.877 67.0424C169.117 67.992 168.409 68.838 168.323 68.9416C168.115 69.1834 166.855 71.1344 166.285 72.084C163.661 76.504 160.95 83.0131 160.052 87.0187C158.084 95.8933 157.929 97.1364 157.929 104.198C157.946 110.137 158.101 111.795 159.12 116.543C159.362 117.631 159.586 118.718 159.638 118.96C160.035 120.997 161.883 125.987 162.936 127.938C165.957 133.498 168.772 136.502 173.174 138.936C175.471 140.214 179.165 141.026 181.652 140.818C186.158 140.439 190.526 138.436 194.653 134.845C195.827 133.826 198.106 131.305 199.332 129.665C199.798 129.043 200.247 128.456 200.316 128.37C201.214 127.248 203.406 123.259 204.736 120.341C205.668 118.304 207.17 114.178 207.55 112.658C207.619 112.365 207.895 111.242 208.189 110.155C208.811 107.772 209.139 106.011 209.587 102.903C210.071 99.5191 210.123 98.7594 210.123 93.6487C210.14 88.0374 209.916 85.672 208.862 80.3715C208.534 78.6622 207.17 74.3285 206.497 72.7746C206.1 71.8768 204.408 68.3891 204.114 67.923C202.871 65.7993 200.126 62.5188 198.468 61.1548C196.863 59.8427 192.84 57.6672 192.011 57.6672C191.821 57.6672 191.631 57.5981 191.579 57.5291C191.528 57.4427 191.234 57.3737 190.923 57.3564C190.613 57.3391 189.939 57.2528 189.421 57.1492C188.385 56.9593 187.228 56.9593 185.692 57.1492Z" fill="#090b10"/>
<path d="M30.3874 61.1894C25.5013 61.9491 22.3762 63.5548 18.9058 67.0597C16.9548 69.028 15.4527 71.0826 14.2786 73.3789C13.8988 74.0868 13.5362 74.7429 13.4499 74.8292C13.3635 74.9328 13.2945 75.1055 13.2945 75.2263C13.2945 75.3645 13.1391 75.7961 12.9319 76.1932C12.742 76.5903 12.552 77.0392 12.5175 77.1946C12.483 77.35 12.224 78.2478 11.9305 79.1802C11.2744 81.3556 11.119 82.0463 10.601 85.2059C10.2385 87.4849 10.1867 88.331 10.2039 92.1121C10.2039 94.702 10.3075 97.3263 10.4629 98.6731C10.9981 103.266 12.7938 109.878 14.6585 113.988C16.7649 118.667 18.3015 121.326 20.9431 124.865C26.2092 131.909 33.1499 136.64 40.1253 137.901C43.4921 138.505 46.7207 138.263 50.1221 137.158C54.0414 135.863 58.2196 132.462 60.844 128.422C63.9 123.708 65.6439 118.425 66.3863 111.709C66.4899 110.724 66.4899 104.043 66.369 102.558C66.2482 100.987 65.7992 97.8443 65.5057 96.5494C65.3849 95.9624 65.2295 95.2199 65.1777 94.9092C65.0741 94.3049 64.0899 90.9553 63.4511 89.0043C62.5015 86.1382 60.257 81.4247 58.4786 78.5586C57.5981 77.1428 55.1809 73.6379 54.9046 73.3789C54.8528 73.3271 54.4557 72.861 54.0241 72.343C52.0213 69.9776 49.535 67.6813 47.0488 65.9374C45.1841 64.6253 41.0576 62.4843 39.9699 62.2599C39.8835 62.2253 39.262 62.0527 38.5886 61.8628C36.016 61.0858 32.7356 60.8268 30.3874 61.1894Z" fill="#090b10"/>
<path d="M109.119 89.5568C103.404 89.8848 98.1033 91.9912 93.4933 95.7379C91.8358 97.0846 90.5064 98.5349 90.1266 99.3809C89.9539 99.778 89.6086 100.555 89.3496 101.107C89.0906 101.66 88.659 102.61 88.3827 103.197C86.708 106.857 85.7238 108.929 85.413 109.464C85.2749 109.706 84.7224 110.794 84.1699 111.881C83.6347 112.969 82.5815 115.075 81.8391 116.543C80.6477 118.926 76.8493 125.866 75.7098 127.731C75.6062 127.886 75.3126 128.404 75.0364 128.888C74.7429 129.354 74.3112 130.062 74.0523 130.442C73.8105 130.822 73.3444 131.581 73.0509 132.117C72.1358 133.826 66.5244 142.424 63.9346 146.102C63.2958 147.017 62.3807 148.329 61.8973 149.002C61.4311 149.693 60.7232 150.643 60.3433 151.126C59.9635 151.609 59.3419 152.455 58.9621 153.008C58.1333 154.182 54.1277 159.448 53.5925 160.052C51.7451 162.124 49.5178 165.18 48.8962 166.458C46.6344 171.171 45.5985 176.265 45.8057 181.652C45.9438 184.863 45.9956 185.295 46.5654 187.936C47.5668 192.581 49.3624 196.638 52.0386 200.368C52.522 201.024 53.04 201.697 53.1781 201.852C53.3162 201.991 53.9723 202.681 54.6284 203.372C58.6168 207.619 64.1591 210.554 70.0121 211.521C71.8941 211.832 72.7055 211.866 74.9328 211.797C78.1615 211.677 79.6463 211.383 84.0145 209.967C88.2791 208.603 94.3394 207.118 97.2055 206.739C97.5335 206.687 98.5349 206.549 99.3982 206.393C100.279 206.255 101.366 206.1 101.815 206.065C102.282 206.031 103.3 205.927 104.112 205.841C106.339 205.616 113.591 205.651 115.939 205.91C117.078 206.031 118.563 206.169 119.219 206.238C119.892 206.307 120.98 206.462 121.636 206.6C122.31 206.739 123.501 206.98 124.312 207.118C125.124 207.257 126.056 207.446 126.384 207.533C126.712 207.619 128.111 207.982 129.492 208.327C131.944 208.931 135.432 209.985 137.21 210.641C140.853 211.987 147.69 212.35 152.162 211.418C157.601 210.295 163.488 207.17 167.477 203.303C174.245 196.742 177.715 189.801 179.027 180.253C179.304 178.268 179.114 171.793 178.716 169.497C177.957 165.18 176.714 161.399 174.884 157.86C174.314 156.772 170.015 150.09 169.738 149.866C169.669 149.814 169.117 149.037 168.512 148.139C167.908 147.241 166.7 145.48 165.836 144.254C164.956 143.011 163.868 141.457 163.402 140.784C162.936 140.111 162.124 138.988 161.589 138.28C160.76 137.158 158.688 134.344 157.842 133.152C157.687 132.928 157.083 132.099 156.496 131.34C155.926 130.563 154.873 129.147 154.165 128.197C152.49 125.953 149.762 122.465 145.981 117.734C144.6 116.025 143.477 114.644 140.197 110.759C139.713 110.189 139.265 109.637 139.195 109.55C138.729 108.963 135.362 105.096 134.689 104.371C134.257 103.887 133.36 102.886 132.704 102.126C126.989 95.4098 125.072 93.8559 119.651 91.456C116.767 90.1784 112.261 89.3669 109.119 89.5568Z" fill="#090b10"/>
</svg>
