<svg width="221" height="212" viewBox="0 0 221 212" fill="none" xmlns="http://www.w3.org/2000/svg">
<path d="M156.686 0.10398C145.705 0.988035 136.157 4.24691 127.42 10.0886C121.118 14.2835 115.438 19.7959 111.45 25.5683C110.983 26.227 110.552 26.851 110.5 26.9203C110.431 27.007 109.948 26.4523 109.43 25.7069C106.771 21.8934 102.316 17.1091 98.6213 14.0755C90.1957 7.19376 80.8722 2.91216 70.4093 1.14405C66.8871 0.53734 64.4699 0.346662 60.4297 0.346662C56.3896 0.346662 53.9724 0.53734 50.4675 1.12671C38.2952 3.18951 27.3488 8.77119 18.4915 17.4211C13.1737 22.6214 9.30621 27.9084 6.21566 34.2355C3.02152 40.7532 1.27769 46.7856 0.310815 54.6034C0.0172997 56.9609 0.0345653 65.7321 0.328081 68.731C2.50355 90.8497 11.4989 108.149 31.0782 127.928C36.5168 133.423 40.7642 137.306 54.0414 148.972C68.2338 161.453 74.1559 166.878 80.8722 173.604C90.3856 183.121 98.5695 192.655 104.889 201.513C105.907 202.934 106.978 204.373 107.271 204.685C108.428 205.916 110.241 206.47 111.933 206.106C113.418 205.812 114.333 205.084 115.542 203.263C123.467 191.372 132.082 181.11 144.617 168.664C150.988 162.337 155.045 158.541 166.372 148.365C176.109 139.611 180.478 135.642 184.57 131.724C198.434 118.481 207.464 106.901 213.161 95.0793C216.304 88.5615 218.307 82.5118 219.602 75.6647C221.311 66.7028 221.432 57.2036 219.964 49.4898C218.03 39.4185 214.007 30.6819 207.464 22.4481C205.703 20.2119 200.868 15.3583 198.641 13.5902C189.404 6.18836 179.442 1.92409 167.787 0.433334C165.75 0.155983 158.568 -0.0346958 156.686 0.10398Z" fill="#4F46E5"/>
</svg>
